USFL
nRows=203
nColumns=2
inDegrees=yes
endheader
time	soleus_r	
2.18736	 32.863755	
2.24986	 32.769445	
2.31235	 32.755886	
2.37485	 32.843649	
2.43734	 32.731677	
2.49984	 32.647045	
2.56234	 32.595309	
2.62483	 32.557531	
2.68733	 32.608675	
2.74982	 32.674469	
2.81232	 32.553536	
2.87482	 32.513809	
2.93731	 32.442196	
2.99981	 32.331093	
3.0623	 31.648491	
3.1248	 31.508351	
3.1873	 30.121230	
3.24979	 30.110712	
3.31229	 30.156153	
3.37478	 30.076427	
3.43728	 30.031429	
3.49978	 29.965882	
3.56227	 29.792952	
3.62477	 29.762031	
3.68726	 29.673112	
3.74976	 29.504539	
3.81226	 29.468973	
3.87475	 29.580303	
3.93725	 29.505508	
3.99974	 29.500845	
4.06224	 29.484861	
4.12474	 29.518656	
4.18723	 29.649409	
4.24973	 29.724218	
4.31222	 29.764542	
4.37472	 29.861582	
4.43722	 29.964988	
4.49971	 30.065364	
4.56221	 30.219188	
4.6247	 30.265723	
4.6872	 30.295913	
4.7497	 30.345627	
4.81219	 30.366274	
4.87469	 29.821861	
4.93718	 29.831609	
4.99968	 29.842907	
5.06218	 29.854214	
5.12467	 29.826615	
5.18717	 29.820656	
5.24966	 29.864729	
5.31216	 29.736228	
5.37466	 29.743766	
5.43715	 29.930859	
5.49965	 29.674118	
5.56214	 29.661360	
5.62464	 29.769052	
5.68714	 29.889294	
5.74963	 29.918173	
5.81213	 30.043506	
5.87462	 30.048348	
5.93712	 30.067192	
5.99962	 30.231271	
6.06211	 29.542533	
6.12461	 29.639021	
6.1871	 29.772037	
6.2496	 29.831361	
6.3121	 29.775909	
6.37459	 29.743563	
6.43709	 29.689858	
6.49958	 29.583534	
6.56208	 29.535058	
6.62458	 29.438942	
6.68707	 29.430342	
6.74957	 29.410446	
6.81206	 29.366228	
6.87456	 29.363013	
6.93706	 29.440348	
6.99955	 29.343532	
7.06205	 29.316248	
7.12454	 29.296598	
7.18704	 29.178249	
7.24954	 29.178568	
7.31203	 29.182353	
7.37453	 30.556980	
7.43702	 30.288530	
7.49952	 30.216952	
7.56202	 29.962247	
7.62451	 29.851289	
7.68701	 29.858118	
7.7495	 29.600007	
7.812	 29.533002	
7.8745	 29.512474	
7.93699	 29.404198	
7.99949	 29.356502	
8.06198	 29.453929	
8.12448	 29.437368	
8.18698	 29.487794	
8.24947	 29.502353	
8.31197	 29.598319	
8.37446	 29.653266	
8.43696	 29.644523	
8.49946	 29.729047	
8.56195	 29.708295	
8.62445	 29.730154	
8.68694	 29.788702	
8.74944	 29.849094	
8.81194	 29.855750	
8.87443	 29.871166	
8.93693	 29.967088	
8.99942	 29.989950	
9.06192	 30.050036	
9.12442	 30.051137	
9.18691	 30.089845	
9.24941	 30.131938	
9.3119	 30.152797	
9.3744	 30.213785	
9.4369	 30.404181	
9.49939	 30.410502	
9.56189	 30.445365	
9.62438	 30.400355	
9.68688	 30.391268	
9.74938	 30.422512	
9.81187	 30.461937	
9.87437	 30.445470	
9.93686	 30.458198	
9.99936	 30.450050	
10.0619	 30.416948	
10.1244	 30.491425	
10.1868	 30.530238	
10.2493	 30.589864	
10.3118	 30.636231	
10.3743	 30.684562	
10.4368	 30.660846	
10.4993	 30.706332	
10.5618	 30.655011	
10.6243	 30.676502	
10.6868	 30.681808	
10.7493	 30.707688	
10.8118	 30.711203	
10.8743	 30.758068	
10.9368	 30.716188	
10.9993	 30.712520	
11.0618	 30.745820	
11.1243	 30.764138	
11.1868	 30.756510	
11.2493	 30.818869	
11.3118	 30.805047	
11.3743	 30.800160	
11.4368	 30.841434	
11.4993	 30.799168	
11.5618	 30.737798	
11.6243	 30.697988	
11.6868	 30.653566	
11.7492	 30.587744	
11.8117	 30.586882	
11.8742	 30.460407	
11.9367	 30.416560	
11.9992	 30.396938	
12.0617	 30.411740	
12.1242	 30.407178	
12.1867	 30.393378	
12.2492	 30.405081	
12.3117	 30.373927	
12.3742	 30.404573	
12.4367	 30.410602	
12.4992	 30.391129	
12.5617	 30.421675	
12.6242	 30.385158	
12.6867	 30.388647	
12.7492	 30.390851	
12.8117	 30.443044	
12.8742	 30.422646	
12.9367	 30.439507	
12.9992	 30.446663	
13.0617	 30.451741	
13.1242	 30.451741	
13.1867	 30.451344	
13.2492	 30.414378	
13.3116	 30.427210	
13.3741	 30.403723	
13.4366	 30.399232	
13.4991	 30.379270	
13.5616	 30.380341	
13.6241	 30.388096	
13.6866	 30.378284	
13.7491	 30.356097	
13.8116	 30.383043	
13.8741	 30.340564	
13.9366	 30.298342	
13.9991	 30.351720	
14.0616	 30.360333	
14.1241	 30.417616	
14.1866	 30.400890	
14.2491	 30.417954	
14.3116	 30.436992	
14.3741	 30.436521	
14.4366	 30.425043	
14.4991	 30.404724	
14.5616	 30.399262	
14.6241	 30.423163	
14.6866	 30.445787	
14.7491	 30.417961	
14.8116	 30.426532	
